<svg width="1101" height="1267" viewBox="0 0 1101 1267" fill="none" xmlns="http://www.w3.org/2000/svg">
<path d="M415.915 1103.72C422.993 1112.18 430.414 1121.82 438.652 1132.68C439.154 1133.34 439.659 1134.01 440.168 1134.68C457.856 1158.02 479.953 1187.18 509.264 1208.97C518.068 1215.51 530.18 1221.04 544.842 1221.04C559.503 1221.04 571.614 1215.51 580.418 1208.97L553.571 1172.85L580.418 1208.97C609.731 1187.18 631.828 1158.02 649.516 1134.68C650.026 1134.01 650.531 1133.34 651.033 1132.68C661.955 1118.28 671.441 1106.02 680.597 1095.82C697.983 1133.84 731.936 1180.87 794.841 1180.87C854.942 1180.87 900.54 1147.11 931.984 1109.33C963.357 1071.64 986.718 1023.22 1004.02 975.601C1038.6 880.465 1055.31 770.602 1055.31 706.471C1055.31 646.998 1034.36 594.222 995.159 556.393C987.912 549.399 980.177 543.053 972.028 537.361C971.627 531.544 970.917 525.702 969.889 519.855L948.967 523.534L969.889 519.855C955.034 435.382 921.862 357.517 874.65 293.041C938.175 287.526 988.016 234.211 988.016 169.256C988.016 100.631 932.385 45 863.76 45C795.143 45 739.516 100.619 739.504 169.234C680.947 134.805 614.215 115.009 542.773 115.009C469.151 115.009 400.539 136.031 340.719 172.419C340.745 171.368 340.759 170.313 340.759 169.256C340.759 100.631 285.127 45 216.503 45C147.878 45 92.2466 100.631 92.2466 169.256C92.2466 235.919 144.743 290.321 210.651 293.377C163.874 357.37 130.914 434.521 115.948 518.218C114.107 528.515 113.257 538.791 113.336 548.943C110.543 551.339 107.813 553.823 105.149 556.393C65.949 594.222 45 646.998 45 706.471C45 770.602 61.7107 880.465 96.2855 975.601C113.591 1023.22 136.951 1071.64 168.325 1109.33C199.769 1147.11 245.366 1180.87 305.467 1180.87C364.078 1180.87 397.554 1140.04 415.915 1103.72Z" fill="white" stroke="white" stroke-width="90"/>
<path d="M794.841 1115.95C929.227 1115.95 990.393 819.047 990.393 706.471C990.393 618.725 929.712 565.547 849.938 565.547C770.661 565.547 706.301 599.561 705.502 641.683C705.5 752.845 685.891 1115.95 794.841 1115.95Z" fill="white"/>
<path d="M305.467 1115.95C171.081 1115.95 109.915 819.047 109.915 706.471C109.915 618.725 170.596 565.547 250.37 565.547C329.647 565.547 394.007 599.561 394.807 641.683C394.809 752.845 414.417 1115.95 305.467 1115.95Z" fill="white"/>
<path d="M794.841 1115.95C929.227 1115.95 990.393 819.047 990.393 706.471C990.393 618.725 929.712 565.547 849.938 565.547C770.661 565.547 706.301 599.561 705.502 641.683C705.5 752.845 685.891 1115.95 794.841 1115.95Z" stroke="black" stroke-width="39.8303"/>
<path d="M305.467 1115.95C171.081 1115.95 109.915 819.047 109.915 706.471C109.915 618.725 170.596 565.547 250.37 565.547C329.647 565.547 394.007 599.561 394.807 641.683C394.809 752.845 414.417 1115.95 305.467 1115.95Z" stroke="black" stroke-width="39.8303"/>
<path d="M543.516 760.475C668.131 760.475 784.863 726.46 884.865 667.196C887.711 665.509 890.775 665.72 892.971 666.956C894.031 667.553 894.661 668.268 894.991 668.865C895.269 669.368 895.545 670.14 895.409 671.488C879.925 824.736 796.821 951.413 685.112 1009.72C648.179 1028.99 622.801 1062.47 600.513 1091.87C600.111 1092.4 599.71 1092.93 599.31 1093.46C581.195 1117.34 564.833 1138.71 544.842 1154.46C524.852 1138.71 508.49 1117.34 490.376 1093.46C489.976 1092.93 489.575 1092.4 489.173 1091.87C466.884 1062.47 441.505 1028.99 404.572 1009.72C293.278 951.628 210.375 825.675 194.45 673.185C194.31 671.839 194.583 671.066 194.859 670.561C195.187 669.963 195.814 669.246 196.87 668.645C199.059 667.401 202.119 667.177 204.97 668.848C304.349 727.092 420.064 760.475 543.516 760.475Z" fill="#FFDF6F" stroke="black" stroke-width="39.8303"/>
<ellipse cx="546.17" cy="668.868" rx="350.507" ry="116.836" fill="black" stroke="black" stroke-width="39.8303"/>
<path d="M264.703 865.364C264.703 865.364 437.589 923.782 548.826 923.782C660.063 923.782 832.949 865.364 832.949 865.364" stroke="black" stroke-width="39.8303" stroke-linecap="round"/>
<path d="M137.246 169.256C137.246 213.028 172.73 248.512 216.502 248.512C260.274 248.512 295.758 213.028 295.758 169.256C295.758 125.484 260.274 90 216.502 90C172.73 90 137.246 125.484 137.246 169.256Z" fill="black"/>
<path d="M943.016 169.256C943.016 213.028 907.532 248.512 863.76 248.512C819.988 248.512 784.504 213.028 784.504 169.256C784.504 125.484 819.988 90 863.76 90C907.532 90 943.016 125.484 943.016 169.256Z" fill="black"/>
<path d="M203.293 157.368L351.238 305.312M878.29 157.368L730.345 305.312" stroke="black" stroke-width="39.628"/>
<path d="M238.999 642.2C196.283 621.865 171.423 576.198 179.75 529.627C215.493 329.742 364.447 179.823 542.773 179.823C721.531 179.823 870.776 330.47 906.054 531.08C914.259 577.736 889.197 623.381 846.334 643.552C754.617 686.713 652.173 710.839 544.094 710.839C434.893 710.839 331.443 686.209 238.999 642.2Z" fill="#FFDF6F" stroke="black" stroke-width="39.628"/>
<path d="M315.216 592.506C280.832 578.502 260.435 541.918 272.35 506.756C309.093 398.316 416.275 319.843 542.774 319.843C669.273 319.843 776.455 398.316 813.198 506.756C825.113 541.918 804.716 578.502 770.332 592.506C700.104 621.108 623.28 636.867 542.774 636.867C462.268 636.867 385.444 621.108 315.216 592.506Z" fill="black"/>
<path d="M699.965 488.922C699.964 518.103 670.394 541.759 633.918 541.759C597.441 541.759 567.871 518.103 567.871 488.922C567.871 459.741 597.441 436.085 633.918 436.085C670.394 436.085 699.965 459.741 699.965 488.922Z" fill="white"/>
<path d="M510.89 488.954C510.89 518.135 481.32 541.791 444.844 541.791C408.367 541.791 378.797 518.135 378.797 488.954C378.797 459.772 408.367 436.116 444.844 436.116C481.32 436.116 510.89 459.772 510.89 488.954Z" fill="white"/>
</svg>
