<?xml version="1.0" encoding="UTF-8"?><svg id="Layer_2" xmlns="http://www.w3.org/2000/svg" xmlns:xlink="http://www.w3.org/1999/xlink" viewBox="0 0 446.86 136.73"><defs><style>.cls-1{fill:url(#linear-gradient);fill-rule:evenodd;}.cls-2{fill:#fff;}.cls-3{fill:#ffc92b;}</style><linearGradient id="linear-gradient" x1="51.69" y1="31.67" x2="180.23" y2="105.12" gradientUnits="userSpaceOnUse"><stop offset="0" stop-color="#fff21f"/><stop offset=".29" stop-color="#ffcd2d"/><stop offset="1" stop-color="#f79233"/></linearGradient></defs><g id="Layer_1-2"><g><path class="cls-2" d="M61.89,0h57.55c14.46,0,25.53,1.44,33.48,4.33,14.21,5.05,23.6,14.18,28.66,27.64l-28.9,14.43-.24-.48c-2.17-6.74-5.06-11.54-8.43-14.9-3.13-2.65-6.99-4.57-12.05-5.53l-.24-2.89-3.13,2.16c-2.65-.48-5.78-.48-9.15-.48h-28.66v26.68l-28.9,19.71V0Zm125,54.81c.48,4.33,.71,8.89,.71,13.22,0,12.26-1.68,23.8-5.3,34.62-3.37,11.3-9.39,19.47-17.58,24.76-5.06,3.12-10.84,5.53-17.1,6.49-6.02,1.2-15.41,1.69-28.18,1.69H61.89v-36.31l28.9-14.42v26.68h11.56l.24,2.16,3.37-2.16h13.49c12.77,0,21.44-2.89,26.26-8.41,3.12-3.6,5.53-8.41,7.22-14.9,1.21-3.61,1.93-7.22,2.41-11.31l31.55-22.11Z"/><polygon class="cls-1" points="0 122.13 125.71 35.58 128.85 66.59 231.92 14.67 108.37 100.97 104.76 69.71 0 122.13"/></g><g><path class="cls-3" d="M218.74,88.2c.96,4.56,3.16,8.06,6.6,10.5,3.44,2.44,7.64,3.66,12.6,3.66,6.88,0,12.04-2.48,15.48-7.44l10.68,6.24c-5.92,8.72-14.68,13.08-26.28,13.08-9.76,0-17.64-2.98-23.64-8.94-6-5.96-9-13.5-9-22.62s2.96-16.46,8.88-22.5c5.92-6.04,13.52-9.06,22.8-9.06,8.8,0,16.02,3.08,21.66,9.24,5.64,6.16,8.46,13.64,8.46,22.44,0,1.36-.16,3.16-.48,5.4h-47.76Zm-.12-10.56h35.28c-.88-4.88-2.9-8.56-6.06-11.04-3.16-2.48-6.86-3.72-11.1-3.72-4.8,0-8.8,1.32-12,3.96-3.2,2.64-5.24,6.24-6.12,10.8Z"/><path class="cls-2" d="M285.22,88.2c.96,4.56,3.16,8.06,6.6,10.5,3.44,2.44,7.64,3.66,12.6,3.66,6.88,0,12.04-2.48,15.48-7.44l10.68,6.24c-5.92,8.72-14.68,13.08-26.28,13.08-9.76,0-17.64-2.98-23.64-8.94-6-5.96-9-13.5-9-22.62s2.96-16.46,8.88-22.5c5.92-6.04,13.52-9.06,22.8-9.06,8.8,0,16.02,3.08,21.66,9.24,5.64,6.16,8.46,13.64,8.46,22.44,0,1.36-.16,3.16-.48,5.4h-47.76Zm-.12-10.56h35.28c-.88-4.88-2.9-8.56-6.06-11.04-3.16-2.48-6.86-3.72-11.1-3.72-4.8,0-8.8,1.32-12,3.96-3.2,2.64-5.24,6.24-6.12,10.8Z"/><path class="cls-3" d="M354.35,100.44h29.16v12.24h-46.81v-8.64l28.08-39.12h-26.88v-12.24h44.39v8.63l-27.94,39.13Z"/><path class="cls-2" d="M433.06,52.68h13.8l-23.04,61.92c-5.76,15.52-15.52,22.88-29.28,22.08v-12.12c4.08,.24,7.36-.62,9.84-2.58,2.48-1.96,4.52-5.02,6.12-9.18l.6-1.2-25.44-58.92h14.16l17.89,43.55,15.35-43.55Z"/></g></g></svg>