<svg xmlns="http://www.w3.org/2000/svg" viewBox="0 0 64 64" width="64" height="64">
  <rect width="64" height="64" rx="14" fill="#662482"/>
  <path fill="#fff" d="M40.5 15c-6.6 0-10.9 3.6-13 7.2-1.3 2.2-1.9 4.6-2.1 6.6-2.5.4-4.5 1.2-6 2.4-2.3 1.9-3.4 4.6-3.4 7.6V49h6.6v-9.6c0-1.6.5-2.5 1.1-3 .7-.6 1.9-1 3.7-1h9.1v-6.2h-6.4c.2-1 .6-2.1 1.2-3.1 1.2-2 3.3-3.9 7.2-3.9 2.9 0 4.6.8 5.6 1.8 1 1.1 1.6 2.8 1.6 5.3V49H52V29.3c0-3.5-.9-6.9-3.3-9.5C46.3 17.2 42.9 15 40.5 15z"/>
  <circle cx="43" cy="24.5" r="2.3" fill="#662482"/>
</svg>
