<svg width="545" height="545" viewBox="0 0 545 545" fill="none" xmlns="http://www.w3.org/2000/svg">
<g clip-path="url(#clip0_412_5020)">
<circle cx="273" cy="272" r="232" fill="#E533CD"/>
<ellipse cx="230.687" cy="207.544" rx="31.8645" ry="46.6166" transform="rotate(-9.19973 230.687 207.544)" fill="white"/>
<ellipse cx="316.802" cy="206.103" rx="31.8645" ry="46.6166" transform="rotate(6.89164 316.802 206.103)" fill="white"/>
<ellipse cx="162.758" cy="273.986" rx="29.5494" ry="43.2296" transform="rotate(-28.8914 162.758 273.986)" fill="white"/>
<ellipse cx="29.5494" cy="43.2296" rx="29.5494" ry="43.2296" transform="matrix(-0.875537 -0.483152 -0.483152 0.875537 430.42 250.413)" fill="white"/>
<path d="M355.574 365.897C355.574 411.427 318.852 375.511 273.553 375.511C228.254 375.511 191.531 411.427 191.531 365.897C191.531 342.156 206.237 328.005 222.216 312.962C236.881 299.157 251.874 283.458 273.553 283.458C295.231 283.458 310.225 299.157 324.89 312.962C340.869 328.005 355.574 342.156 355.574 365.897Z" fill="white"/>
</g>
<defs>
<clipPath id="clip0_412_5020">
<rect width="545" height="545" fill="white"/>
</clipPath>
</defs>
</svg>
